<svg width="120" height="120" viewBox="0 0 120 120" fill="none" xmlns="http://www.w3.org/2000/svg">
<rect width="120" height="120" rx="60" fill="white"/>
<path d="M57.2658 67.606V77.514C57.2658 77.514 53.4979 80.6824 49.2837 84.5386C51.5832 85.274 54.0133 85.7279 56.5314 85.8584C58.8118 83.2451 60.3896 81.3247 60.3896 81.3247H69.7612L83.8186 68.3682C83.8186 68.3682 86.3259 63.1319 84.5997 63.7953L83.0376 65.3196L74.447 72.9411C74.447 72.9411 71.4948 74.1032 70.5422 72.9411C69.7801 72.0114 70.5422 69.8925 70.5422 69.8925L82.2566 59.2224C82.2566 59.2224 83.7434 57.1895 83.0376 56.1738C82.1647 54.9177 79.1328 56.9359 79.1328 56.9359L68.1993 66.8439C68.1993 66.8439 65.938 67.6857 65.0754 66.8439C64.2128 66.0021 65.0754 63.7953 65.0754 63.7953L74.447 55.4116C74.447 55.4116 75.9371 53.3765 75.2279 52.363C74.3017 51.0394 71.3231 53.8873 71.3231 53.8873L57.2658 67.606Z" fill="#1E293B"/>
<path d="M41.6465 91.9948C36.6956 97.3398 29.932 106.476 29.932 106.476L31.4941 108C31.4941 108 40.9235 101.472 46.3322 96.5677C49.6818 93.5307 53.6626 89.1462 56.5314 85.8584C54.0133 85.7279 51.5832 85.274 49.2837 84.5386C46.6403 86.9574 43.8213 89.6469 41.6465 91.9948Z" fill="#1E293B"/>
<path d="M84.0743 68.8539C84.0725 68.8583 84.0707 68.8626 84.0689 68.8669C82.5583 72.4606 80.2887 75.6721 77.4549 78.3115C77.45 78.3161 77.445 78.3207 77.4401 78.3253C74.9035 80.6845 71.9156 82.5857 68.6157 83.893C68.1744 84.0679 67.7275 84.2321 67.2754 84.3853C67.2754 84.3853 67.7799 84.2317 68.6157 83.893C70.5198 83.1215 74.1431 81.39 77.4373 78.3279L77.4401 78.3253C77.445 78.3207 77.45 78.3161 77.4549 78.3115C81.7183 74.34 83.9452 69.1595 84.0689 68.8669C84.0725 68.8583 84.0743 68.8539 84.0743 68.8539Z" fill="#8CC343"/>
<path d="M83.8188 47.028C82.2553 43.5938 79.9256 40.6543 77.0964 38.2808C80.7662 41.5818 83.5333 45.8241 84.9956 50.615C84.7115 49.3566 84.3274 48.1453 83.8188 47.028Z" fill="#8CC343"/>
<path d="M84.9637 66.4091C85.7428 63.8931 86.1617 61.2244 86.1617 58.4602C86.1617 55.734 85.7542 53.1007 84.9956 50.615C86.2977 56.3839 85.4979 63.1455 84.9637 66.4091Z" fill="#8CC343"/>
<path d="M30.9845 50.9979C34.3152 39.4711 45.1701 31.0228 58.0469 31.0228C65.3964 31.0228 72.0873 33.7749 77.0964 38.2808C79.9256 40.6543 82.2553 43.5938 83.8188 47.028C84.3274 48.1453 84.7115 49.3566 84.9956 50.615C85.7542 53.1007 86.1617 55.734 86.1617 58.4602C86.1617 61.2244 85.7428 63.8931 84.9637 66.4091C84.706 67.2415 84.4088 68.0571 84.0743 68.8539C84.0725 68.8583 84.0707 68.8626 84.0689 68.8669C82.5583 72.4606 80.2887 75.6721 77.4549 78.3115C77.45 78.3161 77.445 78.3207 77.4401 78.3253C74.9035 80.6845 71.9156 82.5857 68.6157 83.893C67.7799 84.2317 67.2754 84.3853 67.2754 84.3853L54.9231 95.8056C54.9231 95.8056 64.0288 94.8767 69.7612 92.757C76.2647 90.3521 84.5997 83.6112 84.5997 83.6112V94.2813H101V22.6392H84.5997V34.0714C84.5997 34.0714 73.7586 23.6779 63.5137 21.877C49.8442 19.4742 39.287 21.7657 29.9322 31.785C20.6158 41.7631 17.3355 52.0328 19.7796 65.3196C21.5391 74.8845 23.7722 81.2864 31.4941 87.4219C34.2523 89.6134 39.3038 91.9948 39.3038 91.9948L33.837 83.6112L37.9268 77.6243C37.9268 77.6243 34.169 75.4471 31.6728 68.2007C30.865 66.1041 30.3387 63.8955 30.0932 61.5731C29.6142 57.9856 29.9585 54.3911 30.9845 50.9979Z" fill="#1E293B"/>
<path fill-rule="evenodd" clip-rule="evenodd" d="M30.9845 50.9979C34.3152 39.4711 45.1701 31.0228 58.0469 31.0228C65.3964 31.0228 72.0873 33.7749 77.0964 38.2808C80.7662 41.5818 83.5333 45.8241 84.9956 50.615C86.2977 56.3839 85.4979 63.1455 84.9637 66.4091C84.706 67.2415 84.4088 68.0571 84.0743 68.8539L84.0689 68.8669C83.9452 69.1595 81.7183 74.34 77.4549 78.3115L77.4401 78.3253L77.4373 78.3279C74.1431 81.39 70.5198 83.1215 68.6157 83.893C67.7799 84.2317 67.2754 84.3853 67.2754 84.3853C64.3847 85.3652 61.2795 85.8976 58.0469 85.8976C57.5385 85.8976 57.0332 85.8845 56.5314 85.8584C58.8118 83.2451 60.3896 81.3247 60.3896 81.3247H69.7612L83.8186 68.3682C83.8186 68.3682 86.3259 63.1319 84.5997 63.7953L83.0376 65.3196L74.447 72.9411C74.447 72.9411 71.4948 74.1032 70.5422 72.9411C69.7801 72.0114 70.5422 69.8925 70.5422 69.8925L82.2566 59.2224C82.2566 59.2224 83.7434 57.1895 83.0376 56.1738C82.1647 54.9177 79.1328 56.9359 79.1328 56.9359L68.1993 66.8439C68.1993 66.8439 65.938 67.6857 65.0754 66.8439C64.2128 66.0021 65.0754 63.7953 65.0754 63.7953L74.447 55.4116C74.447 55.4116 75.9371 53.3765 75.2279 52.363C74.3017 51.0394 71.3231 53.8873 71.3231 53.8873L57.2658 67.606V77.514C57.2658 77.514 53.4979 80.6824 49.2837 84.5386C44.9337 83.1472 41.1199 80.8254 37.9268 77.6243C35.0819 74.7797 32.9983 71.6411 31.6728 68.2007C30.865 66.1041 30.3387 63.8955 30.0932 61.5731C29.6142 57.9856 29.9585 54.3911 30.9845 50.9979Z" fill="#8CC343"/>
<path d="M37.9268 77.6243C37.9268 77.6243 34.169 75.4471 31.6728 68.2007C32.9983 71.6411 35.0819 74.7797 37.9268 77.6243Z" fill="#1E293B"/>
</svg>
