<svg width="184" height="97" viewBox="0 0 184 97" fill="none" xmlns="http://www.w3.org/2000/svg">
<path d="M0 87.5V0.5H9.5V87.5H0Z" fill="#020403"/>
<path d="M40 13.5V9.5H26.5V31H30.5V22.5H38.5V19H30.5V13.5H40Z" fill="#8DC543"/>
<path d="M46.5 26V9.5H51V25C51 25 53.1662 27.3254 55 27.5C57.1733 27.707 60 25 60 25V9.5H64V26C64 26 59.3452 31.1061 55.2276 31C51.2751 30.8982 46.5 26 46.5 26Z" fill="#8DC543"/>
<path d="M71 13.5V9.5H85.5V13.5H80V31H76V13.5H71Z" fill="#8DC543"/>
<path d="M92 26V9.5H96.5V25C96.5 25 98.9897 27.5 101 27.5C103.01 27.5 105.5 25 105.5 25V9.5H109.5V26C109.5 26 104.85 30.9052 101 31C96.9805 31.099 92 26 92 26Z" fill="#8DC543"/>
<path d="M141.5 31V9.5H156.5V13.5H145.5V18H155.5V22.5H145.5V27.5H156.5V31H141.5Z" fill="#8DC543"/>
<path d="M124 87.5H113.5V53.5C113.5 53.5 112.072 49.1572 108.5 48.5C104.912 47.8399 99.997 48.4205 97 50.5C93.2582 53.0962 91 60.5 91 60.5V87.5H80.5V41H90V50C90 50 93.5191 45.488 97.5 43C101.5 40.5 107 39.5 110.5 39.5C114.02 39.5 115.931 40.1087 119 42.5C121.777 44.6636 124 50 124 50V87.5Z" fill="#020403"/>
<path fill-rule="evenodd" clip-rule="evenodd" d="M174 47V0H184V87.5H174V81C174 81 170.71 83.8403 167 85.5C163.29 87.1597 158.215 87.4775 154 87.5C146.82 87.5383 142.096 86.5156 137.5 81C132.5 75 131.5 69.5 131.5 64C131.5 56.7096 132.918 51.7274 138 46.5C143.005 41.3519 149.823 39.7048 157 39.5C164.974 39.2724 174 47 174 47ZM156.5 47.5C148.105 48.2905 142.753 55.0713 142.5 63.5C142.238 72.2219 147.532 79.9558 156.5 80.5C166.01 81.0772 174.788 73.0236 174.5 63.5C174.22 54.2442 165.719 46.6319 156.5 47.5Z" fill="#020403"/>
<path fill-rule="evenodd" clip-rule="evenodd" d="M118 9.5V31H122V24.5H124.5L130 31H135.5L129 23C129 23 133.254 20.0775 133.5 17C133.653 15.089 131.12 11.3615 131.12 11.3615C131.12 11.3615 129.929 10.1968 129.5 10C128.613 9.59283 127 9.5 127 9.5H118ZM122 19.5V13H127C127 13 129.108 14.9295 129 16.5C128.903 17.9047 127 19.5 127 19.5H122Z" fill="#8DC543"/>
<path d="M42.5 69.9999V76.4999C42.5 76.4999 40.0877 78.5785 37.3896 81.1083C38.8618 81.5908 40.4177 81.8886 42.0299 81.9742C43.4898 80.2598 44.5 78.9999 44.5 78.9999H50.5L59.5 70.4999C59.5 70.4999 61.1053 67.0647 60.0001 67.4999L59 68.4999L53.5 73.4999C53.5 73.4999 51.6099 74.2623 51 73.4999C50.5121 72.89 51 71.4999 51 71.4999L58.5 64.4999C58.5 64.4999 59.4519 63.1663 59 62.4999C58.4412 61.6759 56.5 62.9999 56.5 62.9999L49.5 69.4999C49.5 69.4999 48.0523 70.0522 47.5 69.4999C46.9477 68.9477 47.5 67.4999 47.5 67.4999L53.5 61.9999C53.5 61.9999 54.454 60.6648 54 59.9999C53.407 59.1316 51.5 60.9999 51.5 60.9999L42.5 69.9999Z" fill="#020202"/>
<path d="M32.5 85.9999C29.3303 89.5064 25 95.4999 25 95.4999L26.0001 96.4999C26.0001 96.4999 32.0371 92.2172 35.5 88.9999C37.6445 87.0075 40.1931 84.1311 42.0299 81.9742C40.4177 81.8886 38.8618 81.5908 37.3896 81.1083C35.6972 82.6952 33.8924 84.4596 32.5 85.9999Z" fill="#020202"/>
<path d="M59.6638 70.8186C59.6626 70.8214 59.6614 70.8243 59.6603 70.8271C58.6931 73.1847 57.2401 75.2916 55.4258 77.0232C55.4226 77.0262 55.4194 77.0292 55.4163 77.0322C53.7923 78.5799 51.8793 79.8272 49.7666 80.6848C49.4841 80.7995 49.198 80.9073 48.9085 81.0078C48.9085 81.0078 49.2315 80.907 49.7666 80.6848C50.9857 80.1787 53.3054 79.0427 55.4145 77.0339L55.4163 77.0322C55.4194 77.0292 55.4226 77.0262 55.4258 77.0232C58.1554 74.4177 59.5811 71.0191 59.6603 70.8271C59.6626 70.8215 59.6638 70.8186 59.6638 70.8186Z" fill="#8CC343"/>
<path d="M59.5001 56.4999C58.4992 54.247 57.0076 52.3186 55.1962 50.7614C57.5457 52.927 59.3174 55.7101 60.2536 58.8532C60.0717 58.0276 59.8258 57.233 59.5001 56.4999Z" fill="#8CC343"/>
<path d="M60.2332 69.2147C60.732 67.5641 61.0001 65.8133 61.0001 63.9999C61.0001 62.2114 60.7393 60.4839 60.2536 58.8532C61.0872 62.6378 60.5751 67.0737 60.2332 69.2147Z" fill="#8CC343"/>
<path d="M25.6739 59.1044C27.8063 51.5423 34.7559 45.9999 43.0001 45.9999C47.7055 45.9999 51.9892 47.8054 55.1962 50.7614C57.0076 52.3186 58.4992 54.247 59.5001 56.4999C59.8258 57.233 60.0717 58.0276 60.2536 58.8532C60.7393 60.4839 61.0001 62.2114 61.0001 63.9999C61.0001 65.8133 60.732 67.5641 60.2332 69.2147C60.0682 69.7607 59.8779 70.2958 59.6638 70.8186C59.6626 70.8214 59.6614 70.8243 59.6603 70.8271C58.6931 73.1847 57.2401 75.2916 55.4258 77.0232C55.4226 77.0262 55.4194 77.0292 55.4163 77.0322C53.7923 78.5799 51.8793 79.8272 49.7666 80.6848C49.2315 80.907 48.9085 81.0078 48.9085 81.0078L41.0001 88.4999C41.0001 88.4999 46.8299 87.8906 50.5 86.4999C54.6638 84.9223 60.0001 80.4999 60.0001 80.4999V87.4999H70.5001V40.4999H60.0001V47.9999C60.0001 47.9999 53.0593 41.1814 46.5001 39.9999C37.7485 38.4236 30.9894 39.9269 25.0001 46.4999C19.0355 53.046 16.9353 59.7833 18.5001 68.4999C19.6266 74.7749 21.0563 78.9748 26.0001 82.9999C27.766 84.4376 31.0001 85.9999 31.0001 85.9999L27.5001 80.4999L30.1185 76.5723C30.1185 76.5723 27.7127 75.1439 26.1145 70.3901C25.5973 69.0146 25.2604 67.5657 25.1032 66.0421C24.7965 63.6886 25.017 61.3304 25.6739 59.1044Z" fill="#020202"/>
<path fill-rule="evenodd" clip-rule="evenodd" d="M25.6739 59.1044C27.8063 51.5423 34.7559 45.9999 43.0001 45.9999C47.7055 45.9999 51.9892 47.8054 55.1962 50.7614C57.5457 52.927 59.3174 55.7101 60.2536 58.8532C61.0872 62.6378 60.5751 67.0737 60.2332 69.2147C60.0682 69.7607 59.8779 70.2958 59.6638 70.8186L59.6603 70.8271C59.5811 71.0191 58.1554 74.4177 55.4258 77.0232L55.4163 77.0322L55.4145 77.0339C53.3054 79.0427 50.9857 80.1787 49.7666 80.6848C49.2315 80.907 48.9085 81.0078 48.9085 81.0078C47.0578 81.6506 45.0697 81.9999 43.0001 81.9999C42.6746 81.9999 42.3511 81.9913 42.0299 81.9742C43.4898 80.2598 44.5 78.9999 44.5 78.9999H50.5L59.5 70.4999C59.5 70.4999 61.1053 67.0647 60.0001 67.4999L59 68.4999L53.5 73.4999C53.5 73.4999 51.6099 74.2623 51 73.4999C50.5121 72.89 51 71.4999 51 71.4999L58.5 64.4999C58.5 64.4999 59.4519 63.1663 59 62.4999C58.4412 61.6759 56.5 62.9999 56.5 62.9999L49.5 69.4999C49.5 69.4999 48.0523 70.0522 47.5 69.4999C46.9477 68.9477 47.5 67.4999 47.5 67.4999L53.5 61.9999C53.5 61.9999 54.454 60.6648 54 59.9999C53.407 59.1316 51.5 60.9999 51.5 60.9999L42.5 69.9999V76.4999C42.5 76.4999 40.0877 78.5785 37.3896 81.1083C34.6046 80.1956 32.1629 78.6723 30.1185 76.5723C28.2972 74.7061 26.9632 72.6471 26.1145 70.3901C25.5973 69.0146 25.2604 67.5657 25.1032 66.0421C24.7965 63.6886 25.017 61.3304 25.6739 59.1044Z" fill="#8CC343"/>
<path d="M30.1185 76.5723C30.1185 76.5723 27.7127 75.1439 26.1145 70.3901C26.9632 72.6471 28.2972 74.7061 30.1185 76.5723Z" fill="#020202"/>
</svg>
