<svg width="223" height="54" viewBox="0 0 223 54" fill="none" xmlns="http://www.w3.org/2000/svg">
<path d="M4.75 52.6875C6.14583 53.2292 7.61458 53.5 9.15625 53.5C10.7188 53.5 12.3542 53.1458 14.0625 52.4375C15.7917 51.7292 17.4583 50.4792 19.0625 48.6875C20.6875 46.9167 22.1458 44.4375 23.4375 41.25C24.75 38.0625 25.7708 34 26.5 29.0625C28.0417 29.3125 29.5104 29.4375 30.9062 29.4375C34.1354 29.4375 37.0417 28.9792 39.625 28.0625C42.2083 27.125 44.4062 25.8854 46.2188 24.3438C46.2188 24.3438 46.5157 24.0726 46.9148 23.7316C47.5911 23.1536 48.5606 22.375 48.875 22.375C49.5423 22.375 49.2824 24.0344 49.2824 24.0344C49.304 24.3714 49.637 24.9224 50.2812 25.6875C50.9479 26.4792 52.3438 27.1354 54.4688 27.6562L48.125 34.8125V38.4375C49.125 37.3125 49.9583 36.4062 50.625 35.7188C51.2917 35.0104 51.9062 34.3854 52.4688 33.8438C53.0312 33.2812 53.6354 32.6667 54.2812 32C54.9479 31.3333 55.75 30.4792 56.6875 29.4375C56.4375 30.0417 56 31.0417 55.375 32.4375C54.7708 33.8333 54.125 35.3542 53.4375 37C52.7708 38.6458 52.1979 40.1771 51.7188 41.5938C51.2396 42.9896 51 44.0208 51 44.6875C51 45.6458 51.2083 46.5729 51.625 47.4688C52.0625 48.3438 52.7708 48.7812 53.75 48.7812C54.5417 48.7812 55.5417 48.4688 56.75 47.8438C57.9583 47.2188 59.2604 46.375 60.6562 45.3125C62.0729 44.25 64.875 41.75 64.875 41.75L66.2166 40.7097L74.8125 30.2188C75.0417 29.5938 75.4479 28.8333 76.0312 27.9375C76.6354 27.0208 77.4062 26.2083 78.3438 25.5C79.2812 24.7917 80.3646 24.4375 81.5938 24.4375C82.5104 24.4375 83.2292 24.6458 83.75 25.0625C84.2708 25.4792 84.5312 26.2812 84.5312 27.4688C84.5312 28.9271 84.0938 30.2604 83.2188 31.4688C82.3438 32.6771 81.2917 33.2812 80.0625 33.2812C79.1458 33.2812 78.2188 33.0104 77.2812 32.4688L74.7344 30.375L66.176 40.875C66.2843 41.3434 66.6896 42.703 67.0379 43.5938C67.4767 44.716 68.4375 46.3438 68.4375 46.3438C69.9375 48.0104 71.9479 48.8438 74.4688 48.8438C77.5312 48.8438 80.4896 47.8229 83.3438 45.7812C86.2188 43.7188 88.875 41.375 88.875 41.375L88.0312 44C87.7604 45.6458 87.5938 46.9375 87.5312 47.875H93.5C93.7083 47.0625 94.0417 45.9271 94.5 44.4688C94.9583 43.0104 95.5312 41.4167 96.2188 39.6875C96.9062 37.9583 97.6875 36.2604 98.5625 34.5938C99.4583 32.9062 100.417 31.4271 101.438 30.1562C102.479 28.8646 103.583 27.9479 104.75 27.4062C105 27.3229 105.219 27.2812 105.406 27.2812C105.781 27.2812 106.115 27.4375 106.406 27.75C106.719 28.0625 106.875 28.5208 106.875 29.125V29.4375C106.875 29.5625 106.854 29.6875 106.812 29.8125C106.458 31.7708 105.958 33.75 105.312 35.75C104.667 37.7292 104.083 39.7292 103.562 41.75C103.042 43.75 102.781 45.7917 102.781 47.875H108.781C109.031 47 109.427 45.75 109.969 44.125C110.51 42.4792 111.167 40.7083 111.938 38.8125C112.729 36.8958 113.594 35.0729 114.531 33.3438C115.469 31.6146 116.458 30.1979 117.5 29.0938C118.542 27.9688 119.604 27.4062 120.688 27.4062C121.292 27.4062 121.781 27.6562 122.156 28.1562C122.552 28.6354 122.75 29.1458 122.75 29.6875C122.75 30.9583 122.531 32.2604 122.094 33.5938C121.656 34.9271 121.146 36.2812 120.562 37.6562C120 39.0104 119.5 40.3958 119.062 41.8125C118.625 43.2292 118.406 44.6562 118.406 46.0938C118.406 47.9271 119.021 48.8438 120.25 48.8438C120.812 48.8438 121.656 48.4896 122.781 47.7812C123.906 47.0729 125.156 46.1562 126.531 45.0312C127.906 43.9062 129.271 42.6979 130.625 41.4062C131.979 40.0938 130.26 45.875 131.281 44.6875C131.281 45.6458 131.49 46.5729 131.906 47.4688C132.323 48.3438 133.031 48.7812 134.031 48.7812C135.948 48.6771 138.01 47.6667 140.219 45.75C142.427 43.8333 143.229 43.5208 146.75 40.0625C146.625 40.5417 146.521 41.0938 146.438 41.7188C146.354 42.3229 146.312 42.9271 146.312 43.5312C146.312 44.8438 146.562 46.0521 147.062 47.1562C147.583 48.2396 148.552 48.7812 149.969 48.7812C151.24 48.7812 152.583 48.4479 154 47.7812C155.438 47.0938 156.854 46.2188 158.25 45.1562C159.667 44.0729 160.979 42.9479 162.188 41.7812C161.979 42.5729 161.875 43.5417 161.875 44.6875C161.875 45.7292 162.052 46.6771 162.406 47.5312C162.781 48.3646 163.5 48.7812 164.562 48.7812C165.625 48.7812 166.812 48.4479 168.125 47.7812C169.438 47.1146 170.802 46.2292 172.219 45.125C173.635 44.0208 176.361 41.4738 176.361 41.4738L175.906 44C175.635 45.6458 175.469 46.9375 175.406 47.875H181.375C181.583 47.0625 181.917 45.9271 182.375 44.4688C182.833 43.0104 183.406 41.4167 184.094 39.6875C184.781 37.9583 185.562 36.2604 186.438 34.5938C187.333 32.9062 188.292 31.4271 189.312 30.1562C190.354 28.8646 191.458 27.9479 192.625 27.4062C192.875 27.3229 193.094 27.2812 193.281 27.2812C193.656 27.2812 193.99 27.4375 194.281 27.75C194.594 28.0625 194.75 28.5208 194.75 29.125V29.4375C194.75 29.5625 194.729 29.6875 194.688 29.8125C194.333 31.7708 193.833 33.75 193.188 35.75C192.542 37.7292 191.958 39.7292 191.438 41.75C190.917 43.75 190.656 45.7917 190.656 47.875H196.656C196.906 47 197.302 45.75 197.844 44.125C198.385 42.4792 199.042 40.7083 199.812 38.8125C200.604 36.8958 201.469 35.0729 202.406 33.3438C203.344 31.6146 204.333 30.1979 205.375 29.0938C206.417 27.9688 207.479 27.4062 208.562 27.4062C209.167 27.4062 209.656 27.6562 210.031 28.1562C210.427 28.6354 210.625 29.1458 210.625 29.6875C210.625 30.9583 210.406 32.2604 209.969 33.5938C209.531 34.9271 209.021 36.2812 208.438 37.6562C207.875 39.0104 207.375 40.3958 206.938 41.8125C206.5 43.2292 206.281 44.6562 206.281 46.0938C206.281 47.9271 206.896 48.8438 208.125 48.8438C208.688 48.8438 209.531 48.4896 210.656 47.7812C211.781 47.0729 213.031 46.1562 214.406 45.0312C215.781 43.9062 217.146 42.6979 218.5 41.4062C219.854 40.0938 221.042 38.8438 222.062 37.6562V34.125C220.021 36.1458 218.292 37.8542 216.875 39.25C215.458 40.6458 214.479 41.3438 213.938 41.3438C213.688 41.3438 213.562 41.1146 213.562 40.6562C213.562 40.5521 213.573 40.4271 213.594 40.2812C213.635 40.1146 213.667 39.9375 213.688 39.75C213.729 39.5208 213.906 38.9688 214.219 38.0938C214.531 37.2188 214.875 36.1458 215.25 34.875C215.646 33.5833 215.979 32.2083 216.25 30.75C216.542 29.2708 216.688 27.8333 216.688 26.4375C216.688 25.0625 216.448 23.9167 215.969 23C215.49 22.0833 214.562 21.625 213.188 21.625C211.792 21.625 210.385 22.0208 208.969 22.8125C207.573 23.6042 206.24 24.6354 204.969 25.9062C203.698 27.1562 202.542 28.5104 201.5 29.9688C200.479 31.4062 199.635 32.7917 198.969 34.125C199.365 32.8333 199.74 31.4792 200.094 30.0625C200.448 28.6458 200.625 27.2396 200.625 25.8438C200.625 25.3438 200.552 24.7708 200.406 24.125C200.26 23.4792 200.01 22.9167 199.656 22.4375C199.323 21.9375 198.844 21.6875 198.219 21.6875C196.635 21.6875 195.135 22.0938 193.719 22.9062C192.323 23.7188 191.021 24.7708 189.812 26.0625C188.625 27.3333 187.542 28.6875 186.562 30.125C185.604 31.5625 184.771 32.8958 184.062 34.125C184.583 32.2917 185.188 30.3958 185.875 28.4375C186.583 26.4792 187.125 24.5521 187.5 22.6562C185.542 22.6562 184.083 22.7396 183.125 22.9062C182.167 23.0521 181.479 23.4792 181.062 24.1875C180.604 24.8958 180.125 26.0208 179.625 27.5625C179.146 29.0833 178.667 30.8021 178.188 32.7188C177.708 34.6354 177.771 34.3958 177.375 36.375C177.375 36.375 176.573 37.5625 175.031 39.0625C173.49 40.5417 172.167 41.7083 171.062 42.5625C169.958 43.4167 169.177 43.8438 168.719 43.8438C168.365 43.8438 168.146 43.7812 168.062 43.6562C167.979 43.5104 167.938 43.2917 167.938 43C167.938 42.4583 167.969 41.9271 168.031 41.4062C168.115 40.8854 168.167 40.4792 168.188 40.1875C168.333 39.5417 168.583 38.5417 168.938 37.1875C169.292 35.8125 169.688 34.3021 170.125 32.6562C170.583 31.0104 171.021 29.4271 171.438 27.9062C171.854 26.3854 172.198 25.1354 172.469 24.1562L172.875 22.6562H170.75C170.021 22.6562 169.354 22.6979 168.75 22.7812C168.146 22.8438 167.615 23.1354 167.156 23.6562C166.698 24.1562 166.292 25.0625 165.938 26.375L162.562 39.375C162.396 39.7083 161.875 40.1979 161 40.8438C160.125 41.4688 159.135 42.0417 158.031 42.5625C156.927 43.0833 155.938 43.3438 155.062 43.3438C154.479 43.3438 153.979 43.1771 153.562 42.8438C153.167 42.4896 152.969 41.8854 152.969 41.0312C152.969 40.4688 153.135 39.5 153.469 38.125C153.823 36.7292 154.25 35.1771 154.75 33.4688C155.271 31.7396 155.781 30.0625 156.281 28.4375C156.802 26.8125 157.229 25.4583 157.562 24.375C157.917 23.2917 158.094 22.7188 158.094 22.6562H157C156.708 22.6562 156.156 22.6667 155.344 22.6875C154.552 22.7083 153.792 22.7708 153.062 22.875C152.354 22.9792 151.979 23.1667 151.938 23.4375C150.812 26.6667 149.792 29.7604 148.875 32.7188C148.396 33.2604 147.594 35.5208 146.594 36.5625C145.594 37.6042 144.531 38.6771 143.406 39.7812C142.281 40.8646 141.271 41.7917 140.375 42.5625C139.5 43.3333 138.938 43.7188 138.688 43.7188C138.229 43.7188 137.927 43.4479 137.781 42.9062C137.656 42.3646 137.594 41.9479 137.594 41.6562C137.594 41.0312 137.729 40.0938 138 38.8438C138.271 37.5938 138.615 36.1979 139.031 34.6562C139.448 33.0938 139.885 31.5312 140.344 29.9688C140.802 28.3854 141.229 26.9479 141.625 25.6562C142.021 24.3646 142.323 23.3646 142.531 22.6562C141.702 22.6562 140.944 22.6781 140.256 22.7217L139.987 22.0484L139.875 21.375C140.833 21.375 141.562 21.1146 142.375 20.5938C143.188 20.0729 143.844 19.4271 144.344 18.6562C144.844 17.8854 145.094 17.1458 145.094 16.4375C145.094 15.7917 144.823 15.2292 144.281 14.75C143.74 14.25 142.854 14 141.625 14C140.771 14 140.01 14.2708 139.344 14.8125C138.698 15.3333 138.188 15.9792 137.812 16.75C137.458 17.5 137.281 18.2292 137.281 18.9375C137.281 19.5833 137.469 20.1562 137.844 20.6562C137.844 20.6562 138.385 21.3472 138.875 21.375C139.027 21.3836 139.263 21.3333 139.263 21.3333L139.125 22.1259L138.875 22.8768C138.258 23.0092 137.706 23.2482 137.219 23.5938C136.594 24.0312 136.062 24.8125 135.625 25.9375C135.438 26.3958 135.167 27.2292 134.812 28.4375C134.479 29.625 134.104 31.0104 133.688 32.5938C131.646 34.6146 130.417 37.8542 129 39.25C127.583 40.6458 126.604 41.3438 126.062 41.3438C125.812 41.3438 125.688 41.1146 125.688 40.6562C125.688 40.5521 125.698 40.4271 125.719 40.2812C125.76 40.1146 125.792 39.9375 125.812 39.75C125.854 39.5208 126.031 38.9688 126.344 38.0938C126.656 37.2188 127 36.1458 127.375 34.875C127.771 33.5833 128.104 32.2083 128.375 30.75C128.667 29.2708 128.812 27.8333 128.812 26.4375C128.812 25.0625 128.573 23.9167 128.094 23C127.615 22.0833 126.688 21.625 125.312 21.625C123.917 21.625 122.51 22.0208 121.094 22.8125C119.698 23.6042 118.365 24.6354 117.094 25.9062C115.823 27.1562 114.667 28.5104 113.625 29.9688C112.604 31.4062 111.76 32.7917 111.094 34.125C111.49 32.8333 111.865 31.4792 112.219 30.0625C112.573 28.6458 112.75 27.2396 112.75 25.8438C112.75 25.3438 112.677 24.7708 112.531 24.125C112.385 23.4792 112.135 22.9167 111.781 22.4375C111.448 21.9375 110.969 21.6875 110.344 21.6875C108.76 21.6875 107.26 22.0938 105.844 22.9062C104.448 23.7188 103.146 24.7708 101.938 26.0625C100.75 27.3333 99.6667 28.6875 98.6875 30.125C97.7292 31.5625 96.8958 32.8958 96.1875 34.125C96.7083 32.2917 97.3125 30.3958 98 28.4375C98.7083 26.4792 99.25 24.5521 99.625 22.6562C97.6667 22.6562 96.2083 22.7396 95.25 22.9062C94.2917 23.0521 93.6042 23.4792 93.1875 24.1875C92.7292 24.8958 92.25 26.0208 91.75 27.5625C91.2708 29.0833 90.7917 30.8021 90.3125 32.7188C90.3125 32.7188 89.8542 36.2188 88.625 37.4688C87.3958 38.7188 86.1354 39.9479 84.8438 41.1562C83.5521 42.3438 82.3021 43.3333 81.0938 44.125C79.8854 44.9167 78.7917 45.3125 77.8125 45.3125C76.4583 45.3125 75.3958 44.9688 74.625 44.2812C73.8542 43.5938 73.3125 42.7083 73 41.625C72.7083 40.5208 72.5625 39.3438 72.5625 38.0938C72.5625 36.3021 73.0104 34.4688 73.9062 32.5938C74.6979 33.8021 75.6146 34.6667 76.6562 35.1875C77.7188 35.7083 78.6875 35.9688 79.5625 35.9688C81.1458 35.9688 82.6458 35.5729 84.0625 34.7812C85.4792 33.9688 86.6354 32.8958 87.5312 31.5625C88.4479 30.2083 88.9062 28.7292 88.9062 27.125C88.9062 25.0417 88.1875 23.6042 86.75 22.8125C85.3125 22.0208 83.5729 21.625 81.5312 21.625C79.2604 21.625 77.1875 22.1458 75.3125 23.1875C73.4375 24.2083 71.8125 25.5938 70.4375 27.3438C69.0833 29.0729 68.0312 31.0208 67.2812 33.1875L66.4629 36.4571C66.4629 36.4571 64.25 38.5521 63.0625 39.6562C61.875 40.7396 60.8021 41.6667 59.8438 42.4375C58.9062 43.2083 58.2917 43.5938 58 43.5938C57.7292 43.5938 57.5521 43.4896 57.4688 43.2812C57.3854 43.0729 57.3438 42.8542 57.3438 42.625C57.3438 41.8333 57.625 40.6771 58.1875 39.1562C58.7708 37.6146 59.4688 35.9583 60.2812 34.1875C61.1146 32.4167 61.9062 30.75 62.6562 29.1875C63.4271 27.6042 64 26.3646 64.375 25.4688C64.4167 25.3854 64.4375 25.2604 64.4375 25.0938C64.4375 24.8021 64.1354 24.6562 63.5312 24.6562C63.0104 24.6562 62.375 24.7292 61.625 24.875C60.875 25.0208 60.2604 25.0938 59.7812 25.0938C58.7604 25.0938 57.8125 25 56.9375 24.8125C56.0833 24.625 55.3854 24.2917 54.8438 23.8125C55.3854 23.5208 55.8333 22.9896 56.1875 22.2188C56.5625 21.4479 56.75 20.7604 56.75 20.1562C56.75 19.0521 56.2812 18.5 55.3438 18.5C53.4271 18.5 51.9375 19.0729 50.875 20.2188C50.875 20.2188 50.3421 20.875 49.875 20.875C49.6204 20.875 49.8434 20.3293 50.0796 19.8644C50.2549 19.5193 50.4375 19.2188 50.4375 19.2188C51.4167 17.3229 51.9062 15.4167 51.9062 13.5C51.9062 11.25 51.1771 9.13542 49.7188 7.15625C48.2812 5.15625 46.0312 3.54167 42.9688 2.3125C39.9062 1.0625 35.9271 0.4375 31.0312 0.4375C27.9688 0.4375 24.9375 0.75 21.9375 1.375C18.9375 1.97917 16.2083 2.875 13.75 4.0625C11.2917 5.25 9.32292 6.71875 7.84375 8.46875C6.36458 10.2188 5.625 12.2188 5.625 14.4688C5.625 16.1354 6.10417 17.625 7.0625 18.9375C8.02083 20.25 9.21875 21.3646 10.6562 22.2812C12.0938 23.1771 13.5312 23.8542 14.9688 24.3125C15.2604 23.7083 15.4688 22.9062 15.5938 21.9062C15.7396 20.9062 15.8125 20.0521 15.8125 19.3438C14.375 18.8021 13.1562 18.1458 12.1562 17.375C11.1771 16.5833 10.6875 15.3542 10.6875 13.6875C10.6875 12.2917 11.3021 11.0208 12.5312 9.875C13.7604 8.72917 15.3229 7.75 17.2188 6.9375C19.1354 6.10417 21.1562 5.46875 23.2812 5.03125C25.4062 4.57292 27.3542 4.34375 29.125 4.34375C32.4792 4.34375 35.25 4.83333 37.4375 5.8125C39.625 6.77083 41.2604 8.02083 42.3438 9.5625C43.4271 11.0833 43.9688 12.6979 43.9688 14.4062C43.9688 16.2604 43.3646 18.0521 42.1562 19.7812C40.9688 21.4896 39.1771 22.8958 36.7812 24C34.4062 25.1042 31.4479 25.6562 27.9062 25.6562H27.125C27.4167 24.4896 27.7292 23.1146 28.0625 21.5312C28.3958 19.9271 28.7188 18.2917 29.0312 16.625C29.3646 14.9583 29.6458 13.4375 29.875 12.0625C30.125 10.6667 30.3021 9.59375 30.4062 8.84375L27.6562 8.90625C27.3646 8.90625 26.8854 8.95833 26.2188 9.0625C25.5521 9.16667 24.9167 9.34375 24.3125 9.59375C23.7292 9.84375 23.3854 10.2083 23.2812 10.6875L19.8438 28.6875C19.6562 29.7083 19.3958 31.1042 19.0625 32.875C18.7292 34.625 18.3021 36.5104 17.7812 38.5312C17.2812 40.5521 16.6562 42.4688 15.9062 44.2812C15.1562 46.0729 14.2708 47.5417 13.25 48.6875C12.25 49.8542 11.0729 50.4375 9.71875 50.4375C8.28125 50.4375 7.3125 49.9688 6.8125 49.0312C6.3125 48.0938 6.0625 47.0208 6.0625 45.8125C6.0625 45.3333 6.07292 44.7917 6.09375 44.1875C6.11458 43.5833 6.125 42.9792 6.125 42.375C5.125 42.375 4.15625 42.4792 3.21875 42.6875C2.28125 42.8958 1.51042 43.2812 0.90625 43.8438C0.302083 44.3854 0 45.1771 0 46.2188C0 47.8438 0.447917 49.1979 1.34375 50.2812C2.21875 51.3646 3.35417 52.1667 4.75 52.6875Z" fill="#8DC543" class="animate-ping" />
</svg>
